<svg width="33" height="28" viewBox="0 0 33 28" fill="none" xmlns="http://www.w3.org/2000/svg">
<g filter="url(#filter0_di_1_172)">
<path d="M26.9903 11C26.9967 10.8897 27 10.7786 27 10.6667C27 7.53705 24.4629 5 21.3333 5C19.8274 5 18.4586 5.58746 17.4437 6.54572C16.9303 6.40721 16.3905 6.33333 15.8333 6.33333C13.8182 6.33333 12.0288 7.29989 10.9035 8.79469C10.5605 8.71102 10.2021 8.66666 9.83332 8.66666C7.34804 8.66666 5.33333 10.6814 5.33333 13.1667C5.33333 13.1782 5.33337 13.1898 5.33345 13.2014C5.33337 13.2095 5.33333 13.2176 5.33333 13.2258C5.33333 16.2307 7.76928 18.6667 10.7742 18.6667H19.3333C23.5675 18.6667 27 15.2342 27 11H26.9903Z" fill="white"/>
<path d="M26.9903 11C26.9967 10.8897 27 10.7786 27 10.6667C27 7.53705 24.4629 5 21.3333 5C19.8274 5 18.4586 5.58746 17.4437 6.54572C16.9303 6.40721 16.3905 6.33333 15.8333 6.33333C13.8182 6.33333 12.0288 7.29989 10.9035 8.79469C10.5605 8.71102 10.2021 8.66666 9.83332 8.66666C7.34804 8.66666 5.33333 10.6814 5.33333 13.1667C5.33333 13.1782 5.33337 13.1898 5.33345 13.2014C5.33337 13.2095 5.33333 13.2176 5.33333 13.2258C5.33333 16.2307 7.76928 18.6667 10.7742 18.6667H19.3333C23.5675 18.6667 27 15.2342 27 11H26.9903Z" fill="url(#paint0_radial_1_172)" fill-opacity="0.2"/>
</g>
<defs>
<filter id="filter0_di_1_172" x="9.53674e-07" y="3" width="32.3333" height="24.3333" filterUnits="userSpaceOnUse" color-interpolation-filters="sRGB">
<feFlood flood-opacity="0" result="BackgroundImageFix"/>
<feColorMatrix in="SourceAlpha" type="matrix" values="0 0 0 0 0 0 0 0 0 0 0 0 0 0 0 0 0 0 127 0" result="hardAlpha"/>
<feOffset dy="3.33333"/>
<feGaussianBlur stdDeviation="2.66666"/>
<feComposite in2="hardAlpha" operator="out"/>
<feColorMatrix type="matrix" values="0 0 0 0 0.301961 0 0 0 0 0.368627 0 0 0 0 0.435294 0 0 0 0.08 0"/>
<feBlend mode="normal" in2="BackgroundImageFix" result="effect1_dropShadow_1_172"/>
<feBlend mode="normal" in="SourceGraphic" in2="effect1_dropShadow_1_172" result="shape"/>
<feColorMatrix in="SourceAlpha" type="matrix" values="0 0 0 0 0 0 0 0 0 0 0 0 0 0 0 0 0 0 127 0" result="hardAlpha"/>
<feOffset/>
<feGaussianBlur stdDeviation="0.999999"/>
<feComposite in2="hardAlpha" operator="arithmetic" k2="-1" k3="1"/>
<feColorMatrix type="matrix" values="0 0 0 0 0.301961 0 0 0 0 0.368627 0 0 0 0 0.435294 0 0 0 0.08 0"/>
<feBlend mode="normal" in2="shape" result="effect2_innerShadow_1_172"/>
</filter>
<radialGradient id="paint0_radial_1_172" cx="0" cy="0" r="1" gradientUnits="userSpaceOnUse" gradientTransform="translate(20.5 6.33333) rotate(121.827) scale(17.066 27.0559)">
<stop stop-opacity="0"/>
<stop offset="1" stop-color="#4D5E6F"/>
</radialGradient>
</defs>
</svg>
