<svg width="33" height="28" viewBox="0 0 33 28" fill="none" xmlns="http://www.w3.org/2000/svg">
<g filter="url(#filter0_di_1_174)">
<path d="M26.9903 7.99999C26.9967 7.8897 27 7.77856 27 7.66666C27 4.53705 24.4629 2 21.3333 2C19.8274 2 18.4586 2.58746 17.4437 3.54572C16.9303 3.40721 16.3905 3.33333 15.8333 3.33333C13.8182 3.33333 12.0288 4.29989 10.9035 5.79469C10.5605 5.71102 10.2021 5.66666 9.83332 5.66666C7.34804 5.66666 5.33333 7.68138 5.33333 10.1667C5.33333 10.1782 5.33337 10.1898 5.33345 10.2014C5.33337 10.2095 5.33333 10.2176 5.33333 10.2258C5.33333 13.2307 7.76928 15.6667 10.7742 15.6667H19.3333C23.5675 15.6667 27 12.2342 27 7.99999H26.9903Z" fill="white"/>
<path d="M26.9903 7.99999C26.9967 7.8897 27 7.77856 27 7.66666C27 4.53705 24.4629 2 21.3333 2C19.8274 2 18.4586 2.58746 17.4437 3.54572C16.9303 3.40721 16.3905 3.33333 15.8333 3.33333C13.8182 3.33333 12.0288 4.29989 10.9035 5.79469C10.5605 5.71102 10.2021 5.66666 9.83332 5.66666C7.34804 5.66666 5.33333 7.68138 5.33333 10.1667C5.33333 10.1782 5.33337 10.1898 5.33345 10.2014C5.33337 10.2095 5.33333 10.2176 5.33333 10.2258C5.33333 13.2307 7.76928 15.6667 10.7742 15.6667H19.3333C23.5675 15.6667 27 12.2342 27 7.99999H26.9903Z" fill="url(#paint0_radial_1_174)" fill-opacity="0.2"/>
</g>
<g filter="url(#filter1_dii_1_174)">
<path d="M18.924 19.1415C18.924 18.511 19.4351 18 20.0655 18H20.9216V18.8561C20.9216 19.4865 20.4105 19.9975 19.7801 19.9975C19.3073 19.9975 18.924 19.6143 18.924 19.1415Z" fill="#379ADC"/>
</g>
<g filter="url(#filter2_dii_1_174)">
<path d="M14.9289 21.9356C14.9289 21.3052 15.44 20.7941 16.0704 20.7941H16.9265V21.6502C16.9265 22.2806 16.4154 22.7917 15.785 22.7917C15.3122 22.7917 14.9289 22.4084 14.9289 21.9356Z" fill="#379ADC"/>
</g>
<g filter="url(#filter3_dii_1_174)">
<path d="M11.3333 19.1415C11.3333 18.511 11.8444 18 12.4748 18H13.3309V18.8561C13.3309 19.4865 12.8198 19.9975 12.1894 19.9975C11.7166 19.9975 11.3333 19.6143 11.3333 19.1415Z" fill="#379ADC"/>
</g>
<defs>
<filter id="filter0_di_1_174" x="9.53674e-07" y="2.38419e-06" width="32.3333" height="24.3333" filterUnits="userSpaceOnUse" color-interpolation-filters="sRGB">
<feFlood flood-opacity="0" result="BackgroundImageFix"/>
<feColorMatrix in="SourceAlpha" type="matrix" values="0 0 0 0 0 0 0 0 0 0 0 0 0 0 0 0 0 0 127 0" result="hardAlpha"/>
<feOffset dy="3.33333"/>
<feGaussianBlur stdDeviation="2.66666"/>
<feComposite in2="hardAlpha" operator="out"/>
<feColorMatrix type="matrix" values="0 0 0 0 0.301961 0 0 0 0 0.368627 0 0 0 0 0.435294 0 0 0 0.08 0"/>
<feBlend mode="normal" in2="BackgroundImageFix" result="effect1_dropShadow_1_174"/>
<feBlend mode="normal" in="SourceGraphic" in2="effect1_dropShadow_1_174" result="shape"/>
<feColorMatrix in="SourceAlpha" type="matrix" values="0 0 0 0 0 0 0 0 0 0 0 0 0 0 0 0 0 0 127 0" result="hardAlpha"/>
<feOffset/>
<feGaussianBlur stdDeviation="0.999999"/>
<feComposite in2="hardAlpha" operator="arithmetic" k2="-1" k3="1"/>
<feColorMatrix type="matrix" values="0 0 0 0 0.301961 0 0 0 0 0.368627 0 0 0 0 0.435294 0 0 0 0.08 0"/>
<feBlend mode="normal" in2="shape" result="effect2_innerShadow_1_174"/>
</filter>
<filter id="filter1_dii_1_174" x="15.7279" y="16.402" width="8.38971" height="8.38971" filterUnits="userSpaceOnUse" color-interpolation-filters="sRGB">
<feFlood flood-opacity="0" result="BackgroundImageFix"/>
<feColorMatrix in="SourceAlpha" type="matrix" values="0 0 0 0 0 0 0 0 0 0 0 0 0 0 0 0 0 0 127 0" result="hardAlpha"/>
<feOffset dy="1.59804"/>
<feGaussianBlur stdDeviation="1.59804"/>
<feComposite in2="hardAlpha" operator="out"/>
<feColorMatrix type="matrix" values="0 0 0 0 0.282353 0 0 0 0 0.517647 0 0 0 0 0.933333 0 0 0 0.2 0"/>
<feBlend mode="normal" in2="BackgroundImageFix" result="effect1_dropShadow_1_174"/>
<feBlend mode="normal" in="SourceGraphic" in2="effect1_dropShadow_1_174" result="shape"/>
<feColorMatrix in="SourceAlpha" type="matrix" values="0 0 0 0 0 0 0 0 0 0 0 0 0 0 0 0 0 0 127 0" result="hardAlpha"/>
<feOffset/>
<feGaussianBlur stdDeviation="0.39951"/>
<feComposite in2="hardAlpha" operator="arithmetic" k2="-1" k3="1"/>
<feColorMatrix type="matrix" values="0 0 0 0 0 0 0 0 0 0 0 0 0 0 0 0 0 0 0.25 0"/>
<feBlend mode="normal" in2="shape" result="effect2_innerShadow_1_174"/>
<feColorMatrix in="SourceAlpha" type="matrix" values="0 0 0 0 0 0 0 0 0 0 0 0 0 0 0 0 0 0 127 0" result="hardAlpha"/>
<feOffset dy="-0.39951"/>
<feGaussianBlur stdDeviation="0.39951"/>
<feComposite in2="hardAlpha" operator="arithmetic" k2="-1" k3="1"/>
<feColorMatrix type="matrix" values="0 0 0 0 0 0 0 0 0 0 0 0 0 0 0 0 0 0 0.25 0"/>
<feBlend mode="normal" in2="effect2_innerShadow_1_174" result="effect3_innerShadow_1_174"/>
</filter>
<filter id="filter2_dii_1_174" x="11.7328" y="19.1961" width="8.38971" height="8.38971" filterUnits="userSpaceOnUse" color-interpolation-filters="sRGB">
<feFlood flood-opacity="0" result="BackgroundImageFix"/>
<feColorMatrix in="SourceAlpha" type="matrix" values="0 0 0 0 0 0 0 0 0 0 0 0 0 0 0 0 0 0 127 0" result="hardAlpha"/>
<feOffset dy="1.59804"/>
<feGaussianBlur stdDeviation="1.59804"/>
<feComposite in2="hardAlpha" operator="out"/>
<feColorMatrix type="matrix" values="0 0 0 0 0.282353 0 0 0 0 0.517647 0 0 0 0 0.933333 0 0 0 0.2 0"/>
<feBlend mode="normal" in2="BackgroundImageFix" result="effect1_dropShadow_1_174"/>
<feBlend mode="normal" in="SourceGraphic" in2="effect1_dropShadow_1_174" result="shape"/>
<feColorMatrix in="SourceAlpha" type="matrix" values="0 0 0 0 0 0 0 0 0 0 0 0 0 0 0 0 0 0 127 0" result="hardAlpha"/>
<feOffset/>
<feGaussianBlur stdDeviation="0.39951"/>
<feComposite in2="hardAlpha" operator="arithmetic" k2="-1" k3="1"/>
<feColorMatrix type="matrix" values="0 0 0 0 0 0 0 0 0 0 0 0 0 0 0 0 0 0 0.25 0"/>
<feBlend mode="normal" in2="shape" result="effect2_innerShadow_1_174"/>
<feColorMatrix in="SourceAlpha" type="matrix" values="0 0 0 0 0 0 0 0 0 0 0 0 0 0 0 0 0 0 127 0" result="hardAlpha"/>
<feOffset dy="-0.39951"/>
<feGaussianBlur stdDeviation="0.39951"/>
<feComposite in2="hardAlpha" operator="arithmetic" k2="-1" k3="1"/>
<feColorMatrix type="matrix" values="0 0 0 0 0 0 0 0 0 0 0 0 0 0 0 0 0 0 0.25 0"/>
<feBlend mode="normal" in2="effect2_innerShadow_1_174" result="effect3_innerShadow_1_174"/>
</filter>
<filter id="filter3_dii_1_174" x="8.13725" y="16.402" width="8.38971" height="8.38971" filterUnits="userSpaceOnUse" color-interpolation-filters="sRGB">
<feFlood flood-opacity="0" result="BackgroundImageFix"/>
<feColorMatrix in="SourceAlpha" type="matrix" values="0 0 0 0 0 0 0 0 0 0 0 0 0 0 0 0 0 0 127 0" result="hardAlpha"/>
<feOffset dy="1.59804"/>
<feGaussianBlur stdDeviation="1.59804"/>
<feComposite in2="hardAlpha" operator="out"/>
<feColorMatrix type="matrix" values="0 0 0 0 0.282353 0 0 0 0 0.517647 0 0 0 0 0.933333 0 0 0 0.2 0"/>
<feBlend mode="normal" in2="BackgroundImageFix" result="effect1_dropShadow_1_174"/>
<feBlend mode="normal" in="SourceGraphic" in2="effect1_dropShadow_1_174" result="shape"/>
<feColorMatrix in="SourceAlpha" type="matrix" values="0 0 0 0 0 0 0 0 0 0 0 0 0 0 0 0 0 0 127 0" result="hardAlpha"/>
<feOffset/>
<feGaussianBlur stdDeviation="0.39951"/>
<feComposite in2="hardAlpha" operator="arithmetic" k2="-1" k3="1"/>
<feColorMatrix type="matrix" values="0 0 0 0 0 0 0 0 0 0 0 0 0 0 0 0 0 0 0.25 0"/>
<feBlend mode="normal" in2="shape" result="effect2_innerShadow_1_174"/>
<feColorMatrix in="SourceAlpha" type="matrix" values="0 0 0 0 0 0 0 0 0 0 0 0 0 0 0 0 0 0 127 0" result="hardAlpha"/>
<feOffset dy="-0.39951"/>
<feGaussianBlur stdDeviation="0.39951"/>
<feComposite in2="hardAlpha" operator="arithmetic" k2="-1" k3="1"/>
<feColorMatrix type="matrix" values="0 0 0 0 0 0 0 0 0 0 0 0 0 0 0 0 0 0 0.25 0"/>
<feBlend mode="normal" in2="effect2_innerShadow_1_174" result="effect3_innerShadow_1_174"/>
</filter>
<radialGradient id="paint0_radial_1_174" cx="0" cy="0" r="1" gradientUnits="userSpaceOnUse" gradientTransform="translate(20.5 3.33333) rotate(121.827) scale(17.066 27.0559)">
<stop stop-opacity="0"/>
<stop offset="1" stop-color="#4D5E6F"/>
</radialGradient>
</defs>
</svg>
