<svg width="33" height="31" viewBox="0 0 33 31" fill="none" xmlns="http://www.w3.org/2000/svg">
<g filter="url(#filter0_di_1_167)">
<circle cx="13.3333" cy="9.99999" r="6.99999" fill="#FBCA1C"/>
<circle cx="13.3333" cy="9.99999" r="6.99999" fill="url(#paint0_radial_1_167)" fill-opacity="0.2"/>
</g>
<g filter="url(#filter1_di_1_167)">
<path d="M26.9903 14.3333C26.9967 14.223 27 14.1119 27 14C27 10.8704 24.4629 8.33334 21.3333 8.33334C19.8274 8.33334 18.4586 8.9208 17.4437 9.87906C16.9303 9.74056 16.3905 9.66668 15.8333 9.66668C13.8182 9.66668 12.0288 10.6332 10.9035 12.128C10.5605 12.0444 10.2021 12 9.83332 12C7.34803 12 5.33333 14.0147 5.33333 16.5C5.33333 16.5116 5.33337 16.5232 5.33345 16.5347C5.33337 16.5429 5.33333 16.551 5.33333 16.5591C5.33333 19.564 7.76928 22 10.7742 22H19.3333C23.5675 22 27 18.5675 27 14.3333H26.9903Z" fill="white"/>
<path d="M26.9903 14.3333C26.9967 14.223 27 14.1119 27 14C27 10.8704 24.4629 8.33334 21.3333 8.33334C19.8274 8.33334 18.4586 8.9208 17.4437 9.87906C16.9303 9.74056 16.3905 9.66668 15.8333 9.66668C13.8182 9.66668 12.0288 10.6332 10.9035 12.128C10.5605 12.0444 10.2021 12 9.83332 12C7.34803 12 5.33333 14.0147 5.33333 16.5C5.33333 16.5116 5.33337 16.5232 5.33345 16.5347C5.33337 16.5429 5.33333 16.551 5.33333 16.5591C5.33333 19.564 7.76928 22 10.7742 22H19.3333C23.5675 22 27 18.5675 27 14.3333H26.9903Z" fill="url(#paint1_radial_1_167)" fill-opacity="0.2"/>
</g>
<defs>
<filter id="filter0_di_1_167" x="3.66666" y="0.333336" width="19.3333" height="19.3333" filterUnits="userSpaceOnUse" color-interpolation-filters="sRGB">
<feFlood flood-opacity="0" result="BackgroundImageFix"/>
<feColorMatrix in="SourceAlpha" type="matrix" values="0 0 0 0 0 0 0 0 0 0 0 0 0 0 0 0 0 0 127 0" result="hardAlpha"/>
<feMorphology radius="0.999999" operator="dilate" in="SourceAlpha" result="effect1_dropShadow_1_167"/>
<feOffset/>
<feGaussianBlur stdDeviation="0.833332"/>
<feComposite in2="hardAlpha" operator="out"/>
<feColorMatrix type="matrix" values="0 0 0 0 0.984314 0 0 0 0 0.792157 0 0 0 0 0.109804 0 0 0 0.2 0"/>
<feBlend mode="normal" in2="BackgroundImageFix" result="effect1_dropShadow_1_167"/>
<feBlend mode="normal" in="SourceGraphic" in2="effect1_dropShadow_1_167" result="shape"/>
<feColorMatrix in="SourceAlpha" type="matrix" values="0 0 0 0 0 0 0 0 0 0 0 0 0 0 0 0 0 0 127 0" result="hardAlpha"/>
<feOffset/>
<feGaussianBlur stdDeviation="1.5"/>
<feComposite in2="hardAlpha" operator="arithmetic" k2="-1" k3="1"/>
<feColorMatrix type="matrix" values="0 0 0 0 0.984314 0 0 0 0 0.529569 0 0 0 0 0.109804 0 0 0 0.5 0"/>
<feBlend mode="normal" in2="shape" result="effect2_innerShadow_1_167"/>
</filter>
<filter id="filter1_di_1_167" x="0" y="6.33335" width="32.3333" height="24.3333" filterUnits="userSpaceOnUse" color-interpolation-filters="sRGB">
<feFlood flood-opacity="0" result="BackgroundImageFix"/>
<feColorMatrix in="SourceAlpha" type="matrix" values="0 0 0 0 0 0 0 0 0 0 0 0 0 0 0 0 0 0 127 0" result="hardAlpha"/>
<feOffset dy="3.33333"/>
<feGaussianBlur stdDeviation="2.66666"/>
<feComposite in2="hardAlpha" operator="out"/>
<feColorMatrix type="matrix" values="0 0 0 0 0.301961 0 0 0 0 0.368627 0 0 0 0 0.435294 0 0 0 0.08 0"/>
<feBlend mode="normal" in2="BackgroundImageFix" result="effect1_dropShadow_1_167"/>
<feBlend mode="normal" in="SourceGraphic" in2="effect1_dropShadow_1_167" result="shape"/>
<feColorMatrix in="SourceAlpha" type="matrix" values="0 0 0 0 0 0 0 0 0 0 0 0 0 0 0 0 0 0 127 0" result="hardAlpha"/>
<feOffset/>
<feGaussianBlur stdDeviation="0.999999"/>
<feComposite in2="hardAlpha" operator="arithmetic" k2="-1" k3="1"/>
<feColorMatrix type="matrix" values="0 0 0 0 0.301961 0 0 0 0 0.368627 0 0 0 0 0.435294 0 0 0 0.08 0"/>
<feBlend mode="normal" in2="shape" result="effect2_innerShadow_1_167"/>
</filter>
<radialGradient id="paint0_radial_1_167" cx="0" cy="0" r="1" gradientUnits="userSpaceOnUse" gradientTransform="translate(11.6667 7.33333) rotate(50.7106) scale(9.4751 6.61925)">
<stop stop-color="#FBCA1C"/>
<stop offset="1" stop-color="#E4750E"/>
</radialGradient>
<radialGradient id="paint1_radial_1_167" cx="0" cy="0" r="1" gradientUnits="userSpaceOnUse" gradientTransform="translate(20.5 9.66667) rotate(121.827) scale(17.066 27.0559)">
<stop stop-opacity="0"/>
<stop offset="1" stop-color="#4D5E6F"/>
</radialGradient>
</defs>
</svg>
